PathFileType	4	(X/Y/Z)	Patient4_TMGait_0pt4_03_left_13.trc.trc
DataRate	CameraRate	NumFrames	NumMarkers	Units	OrigDataRate	OrigDataStartFrame	OrigNumFrames
78.651685393258	78.651685393258	4	33	mm	78.651685393258	106	       141
Frame#	Time	Sacral			L.Shoulder			Chest			R.Shoulder			Neck			R.ASIS			L.ASIS			R.Thigh.Superior			R.Thigh.Lateral			R.Thigh.Inferior			R.Patella			L.Thigh.Superior			L.Thigh.Lateral			L.Thigh.Inferior			L.Patella			L.Shank.Superior			L.Shank.Lateral			L.Shank.Inferior			R.Shank.Superior			R.Shank.Lateral			R.Shank.Inferior			R.Heel			R.Midfoot.Superior			R.Midfoot.Lateral			R.Toe			L.Heel			L.Midfoot.Lateral			L.Midfoot.Superior			L.Toe			L.Elbow			L.Wrist			R.Elbow			R.Wrist			
		X1	Y1	Z1	X2	Y2	Z2	X3	Y3	Z3	X4	Y4	Z4	X5	Y5	Z5	X6	Y6	Z6	X7	Y7	Z7	X8	Y8	Z8	X9	Y9	Z9	X10	Y10	Z10	X11	Y11	Z11	X12	Y12	Z12	X13	Y13	Z13	X14	Y14	Z14	X15	Y15	Z15	X16	Y16	Z16	X17	Y17	Z17	X18	Y18	Z18	X19	Y19	Z19	X20	Y20	Z20	X21	Y21	Z21	X22	Y22	Z22	X23	Y23	Z23	X24	Y24	Z24	X25	Y25	Z25	X26	Y26	Z26	X27	Y27	Z27	X28	Y28	Z28	X29	Y29	Z29	X30	Y30	Z30	X31	Y31	Z31	X32	Y32	Z32	X33	Y33	Z33	

106	18.105000000000	835.918867257891	1007.152703920619	546.214633215087	996.199810637276	1437.673477017033	358.470883103685	1117.652187615779	1364.875195336885	504.713128714292	1058.795029173117	1435.510010387694	689.556867612863	1001.793920255906	1497.719994278487	517.107793266736	1070.823670207078	943.335017942375	644.520886632170	1037.280361975494	967.436992337269	372.033574664451	1097.989227952491	739.979504371693	611.888768578188	1014.297341460862	631.602695709641	674.196691247797	1086.595019134936	579.107565047805	592.262168602724	1082.008514199451	490.600371557609	598.267164030702	1116.599658236638	783.384657160482	381.481842057268	1062.520713528186	659.579073047253	298.987286395826	1170.629966558560	597.817707733524	346.847164944834	1193.220324596761	525.769552008817	335.508132093822	1161.532559699121	452.682800108968	323.831164970389	1063.938104288608	344.481235340097	273.384807380742	1130.879169934855	225.407574526881	314.507371191600	1048.435467212881	401.699149492297	601.183180437259	969.989447014602	300.190063080221	659.043786691238	1006.848458650173	205.548542613137	591.645300498930	864.805035118073	44.365408925460	555.322028101829	1037.156705369802	96.892508714732	590.633358571232	948.834236243918	37.182537710134	629.098579510410	1156.954181379701	42.524231834750	615.765870445076	1015.989940763155	61.581300099950	351.894210913511	1079.945580859161	63.610017993852	263.830460686956	1164.695611005334	127.338674149124	282.660425644467	1287.598785789202	81.643018839318	235.840654690297	909.664200827340	1096.238235589345	243.569418786136	979.586366185499	845.716349954458	200.808828268689	1106.254638114104	1095.250845862008	823.359777262154	1300.173397169054	925.810572956693	789.547607826901	
107	18.117714285714	835.577794570700	1006.913684966356	546.266427167951	995.771901956446	1437.603470073289	359.071610452612	1117.481590154853	1364.452451432293	504.920733234041	1059.080583083197	1434.753138894409	690.063518300296	1001.715721175491	1497.391977964120	517.813427235516	1070.334756839364	942.887188385246	644.388164636954	1036.724211671895	967.098000776693	371.844684224513	1096.540794092424	739.387427618593	611.559590210094	1012.451313519958	631.190983512028	674.066676169638	1084.227590474013	578.440062252174	592.053763054351	1079.121072494302	489.994619002145	598.006216210513	1114.193730976230	781.494956237112	381.378417890471	1059.456575721991	658.514226827391	298.313876594720	1166.659597815536	595.772115541489	347.386625408786	1189.915758062359	525.974235146603	336.317617136778	1161.734702854033	453.842631676960	323.628976548609	1070.989879140687	340.838583090086	271.231039526350	1144.135048974438	225.268887330132	312.341720326932	1045.133923379997	401.087368931305	600.906396127200	966.284441073025	299.923419093035	658.843746807418	1002.509665526310	205.152867294565	591.391011153444	859.726650775589	44.334187912598	555.289436798433	1032.056307039162	96.801885515238	590.516768035011	943.736098406537	37.196016924750	629.089751916300	1151.850486203174	42.385808977961	615.853421561124	1037.903909806557	55.794493223220	347.755990059903	1103.091297890472	60.487377842121	260.628007816300	1184.508325291748	128.155010310780	280.353834482013	1310.123284286812	87.983879204741	235.532531156012	906.083775528740	1096.971880780112	244.522881802829	970.924785525536	845.262326455691	201.421954890566	1110.803234038519	1094.603110868047	822.399831263414	1308.107356734746	929.558061595872	786.765446912165	
108	18.130428571429	835.164533559180	1006.713830735044	546.064443021188	995.541798088175	1437.512465044423	359.451866147456	1117.367560622202	1364.007674805199	505.016276955376	1059.264342470908	1434.005605556831	690.390581840078	1001.675378615809	1497.058068465125	518.302501271673	1069.787338689830	942.400679879612	644.199567864953	1036.210585993697	966.705407188853	371.586688957054	1095.076684042781	738.722065458995	611.257164427234	1010.491989420003	630.746218909608	673.793752449694	1081.793329646778	577.718614473897	591.730468346355	1076.152054448436	489.356246677786	597.575280427546	1111.698540574300	779.442603577367	381.276245113592	1056.263813637248	657.397330566218	297.571353850814	1162.609904625847	593.634828918027	347.801684722608	1186.443138931210	526.037259792474	337.127867227245	1161.569061485693	454.979352517501	323.511829179423	1077.540494456979	337.728882268402	269.302813145656	1156.341531991200	225.818304653922	310.600480584310	1041.778775709304	400.462468219119	600.489730409006	962.568190748962	299.646412172950	658.571326901520	998.135827625201	204.745608009566	591.061089031335	854.637564315469	44.276633521033	555.247978703656	1026.928408854259	96.705810263492	590.380492124290	938.623974437134	37.204566786306	629.073317916248	1146.735138541579	42.265696782290	615.931580720354	1058.406381010542	51.568103307766	344.233622541944	1124.847053423326	58.489810235505	258.134820782342	1202.968486815447	129.707840475241	278.667111842979	1330.965160767219	94.613798872799	236.161978845017	902.790611823587	1097.661793672424	245.373623620726	962.609895950214	844.850946075168	202.148164855979	1114.990278597937	1093.932627326940	821.127876630055	1315.529416783013	933.308424371061	783.690113747517	
109	18.143142857143	834.689492166000	1006.563819488743	545.642607606656	995.490109854435	1437.411044507299	359.612751377724	1117.306497115952	1363.559785840050	504.992557955030	1059.359545668172	1433.297911226248	690.531052909123	1001.669729522771	1496.733648302266	518.565559979613	1069.198899328688	941.881549943420	643.927516356450	1035.716216557052	966.297189243844	371.250540524511	1093.580479664148	737.991682139050	610.924654515281	1008.426653242236	630.284145648415	673.363230014173	1079.274368099168	576.955389877270	591.258140487063	1073.086071975879	488.692893027830	596.959623117793	1109.207108751131	777.373236572105	381.162587603720	1053.103528342921	656.298543175197	296.801030406397	1158.689593517179	591.561826355059	348.071962049279	1183.016073498870	526.049391421383	337.883178240547	1161.162382156957	456.087888438887	323.459679667417	1083.461190878929	335.175582235599	267.711968085512	1167.300541611222	226.914330630271	309.323944097827	1038.355080530129	399.834135374164	599.927053590320	958.829618922396	299.370930837301	658.227713611916	993.718308794190	204.334100889853	590.659066671346	849.534856659432	44.198570700840	555.199869305554	1021.776487412974	96.611359965543	590.236707033695	933.496979981002	37.207979989495	629.048742534853	1141.607216569662	42.165805080180	615.999936278270	1077.072329031685	48.732012517389	341.501589031812	1144.713659836382	57.453724539224	256.437182128487	1219.692103542591	131.810667190308	277.611306979162	1349.725550013310	101.273546139893	237.543823540829	899.805722618744	1098.310034338409	246.110554012741	954.679339707245	844.479163719265	202.955557216723	1118.800493060535	1093.268722203688	819.567855989912	1322.405360260089	937.062749507060	780.341611686966	
